<?xml version="1.0" encoding="UTF-8" standalone="no"?>
<!DOCTYPE svg PUBLIC "-//W3C//DTD SVG 1.0//EN"
 "http://www.w3.org/TR/2001/REC-SVG-20010904/DTD/svg10.dtd" [
 <!ATTLIST svg xmlns:xlink CDATA #FIXED "http://www.w3.org/1999/xlink">
]>
<!-- Generated by Graphviz version 2.20.2 (Tue Mar &#160;2 21:46:26 UTC 2010)
     For user: (mani) N.Subramanian,,, -->
<!-- Title: controllers_diagram Pages: 1 -->
<svg width="804pt" height="751pt"
 viewBox="0.00 0.00 804.00 751.00" xmlns="http://www.w3.org/2000/svg" xmlns:xlink="http://www.w3.org/1999/xlink">
<g id="graph0" class="graph" transform="scale(1 1) rotate(0) translate(4 747)">
<title>controllers_diagram</title>
<polygon style="fill:white;stroke:white;" points="-4,4 -4,-747 800,-747 800,4 -4,4"/>
<!-- _diagram_info -->
<g id="node1" class="node"><title>_diagram_info</title>
<text text-anchor="start" x="554.5" y="-98.8" style="font-family:Times New Roman;font-size:13.00;">Controllers diagram</text>
<text text-anchor="start" x="554.5" y="-81.8" style="font-family:Times New Roman;font-size:13.00;">Date: Nov 30 2010 &#45; 09:50</text>
<text text-anchor="start" x="554.5" y="-64.8" style="font-family:Times New Roman;font-size:13.00;">Migration version: 20100930135636</text>
<text text-anchor="start" x="554.5" y="-47.8" style="font-family:Times New Roman;font-size:13.00;">Generated by RailRoady 0.11.2</text>
<text text-anchor="start" x="554.5" y="-30.8" style="font-family:Times New Roman;font-size:13.00;">http://railroady.prestonlee.com</text>
</g>
<!-- OrdersController -->
<g id="node2" class="node"><title>OrdersController</title>
<polyline style="fill:none;stroke:black;" points="265,-379 373,-379 "/>
<path style="fill:none;stroke:black;" d="M373,-379C379,-379 385,-385 385,-391"/>
<polyline style="fill:none;stroke:black;" points="385,-391 385,-619 "/>
<path style="fill:none;stroke:black;" d="M385,-619C385,-625 379,-631 373,-631"/>
<polyline style="fill:none;stroke:black;" points="373,-631 265,-631 "/>
<path style="fill:none;stroke:black;" d="M265,-631C259,-631 253,-625 253,-619"/>
<polyline style="fill:none;stroke:black;" points="253,-619 253,-391 "/>
<path style="fill:none;stroke:black;" d="M253,-391C253,-385 259,-379 265,-379"/>
<text text-anchor="middle" x="319" y="-613.9" style="font-family:Times New Roman;font-size:14.00;">OrdersController</text>
<polyline style="fill:none;stroke:black;" points="253,-606 385,-606 "/>
<text text-anchor="start" x="261" y="-589.4" style="font-family:Times New Roman;font-size:14.00;">check</text>
<text text-anchor="start" x="261" y="-572.4" style="font-family:Times New Roman;font-size:14.00;">create</text>
<text text-anchor="start" x="261" y="-555.4" style="font-family:Times New Roman;font-size:14.00;">destroy</text>
<text text-anchor="start" x="261" y="-538.4" style="font-family:Times New Roman;font-size:14.00;">edit</text>
<text text-anchor="start" x="261" y="-521.4" style="font-family:Times New Roman;font-size:14.00;">index</text>
<text text-anchor="start" x="261" y="-504.4" style="font-family:Times New Roman;font-size:14.00;">new</text>
<text text-anchor="start" x="261" y="-487.4" style="font-family:Times New Roman;font-size:14.00;">show</text>
<text text-anchor="start" x="261" y="-470.4" style="font-family:Times New Roman;font-size:14.00;">update</text>
<text text-anchor="start" x="261" y="-453.4" style="font-family:Times New Roman;font-size:14.00;">walkin</text>
<text text-anchor="start" x="261" y="-436.4" style="font-family:Times New Roman;font-size:14.00;">walkincreate</text>
<polyline style="fill:none;stroke:black;" points="253,-428 385,-428 "/>
<polyline style="fill:none;stroke:black;" points="253,-404 385,-404 "/>
<text text-anchor="start" x="261" y="-386.9" style="font-family:Times New Roman;font-size:14.00;">_layout</text>
</g>
<!-- PasswordsController -->
<g id="node3" class="node"><title>PasswordsController</title>
<polyline style="fill:none;stroke:black;" points="601,-295 734,-295 "/>
<path style="fill:none;stroke:black;" d="M734,-295C740,-295 746,-301 746,-307"/>
<polyline style="fill:none;stroke:black;" points="746,-307 746,-433 "/>
<path style="fill:none;stroke:black;" d="M746,-433C746,-439 740,-445 734,-445"/>
<polyline style="fill:none;stroke:black;" points="734,-445 601,-445 "/>
<path style="fill:none;stroke:black;" d="M601,-445C595,-445 589,-439 589,-433"/>
<polyline style="fill:none;stroke:black;" points="589,-433 589,-307 "/>
<path style="fill:none;stroke:black;" d="M589,-307C589,-301 595,-295 601,-295"/>
<text text-anchor="middle" x="667" y="-427.9" style="font-family:Times New Roman;font-size:14.00;">PasswordsController</text>
<polyline style="fill:none;stroke:black;" points="589,-420 746,-420 "/>
<text text-anchor="start" x="596.5" y="-403.4" style="font-family:Times New Roman;font-size:14.00;">create</text>
<text text-anchor="start" x="596.5" y="-386.4" style="font-family:Times New Roman;font-size:14.00;">edit</text>
<text text-anchor="start" x="596.5" y="-369.4" style="font-family:Times New Roman;font-size:14.00;">new</text>
<text text-anchor="start" x="596.5" y="-352.4" style="font-family:Times New Roman;font-size:14.00;">update</text>
<polyline style="fill:none;stroke:black;" points="589,-344 746,-344 "/>
<polyline style="fill:none;stroke:black;" points="589,-320 746,-320 "/>
<text text-anchor="start" x="596.5" y="-302.9" style="font-family:Times New Roman;font-size:14.00;">_layout</text>
</g>
<!-- SessionsController -->
<g id="node4" class="node"><title>SessionsController</title>
<polyline style="fill:none;stroke:black;" points="601,-462 721,-462 "/>
<path style="fill:none;stroke:black;" d="M721,-462C727,-462 733,-468 733,-474"/>
<polyline style="fill:none;stroke:black;" points="733,-474 733,-583 "/>
<path style="fill:none;stroke:black;" d="M733,-583C733,-589 727,-595 721,-595"/>
<polyline style="fill:none;stroke:black;" points="721,-595 601,-595 "/>
<path style="fill:none;stroke:black;" d="M601,-595C595,-595 589,-589 589,-583"/>
<polyline style="fill:none;stroke:black;" points="589,-583 589,-474 "/>
<path style="fill:none;stroke:black;" d="M589,-474C589,-468 595,-462 601,-462"/>
<text text-anchor="middle" x="661" y="-577.9" style="font-family:Times New Roman;font-size:14.00;">SessionsController</text>
<polyline style="fill:none;stroke:black;" points="589,-570 733,-570 "/>
<text text-anchor="start" x="597" y="-552.9" style="font-family:Times New Roman;font-size:14.00;">create</text>
<text text-anchor="start" x="597" y="-535.9" style="font-family:Times New Roman;font-size:14.00;">destroy</text>
<text text-anchor="start" x="597" y="-518.9" style="font-family:Times New Roman;font-size:14.00;">new</text>
<polyline style="fill:none;stroke:black;" points="589,-511 733,-511 "/>
<polyline style="fill:none;stroke:black;" points="589,-487 733,-487 "/>
<text text-anchor="start" x="597" y="-469.9" style="font-family:Times New Roman;font-size:14.00;">_layout</text>
</g>
<!-- CurrenciesController -->
<g id="node5" class="node"><title>CurrenciesController</title>
<polyline style="fill:none;stroke:black;" points="433,-148 568,-148 "/>
<path style="fill:none;stroke:black;" d="M568,-148C574,-148 580,-154 580,-160"/>
<polyline style="fill:none;stroke:black;" points="580,-160 580,-354 "/>
<path style="fill:none;stroke:black;" d="M580,-354C580,-360 574,-366 568,-366"/>
<polyline style="fill:none;stroke:black;" points="568,-366 433,-366 "/>
<path style="fill:none;stroke:black;" d="M433,-366C427,-366 421,-360 421,-354"/>
<polyline style="fill:none;stroke:black;" points="421,-354 421,-160 "/>
<path style="fill:none;stroke:black;" d="M421,-160C421,-154 427,-148 433,-148"/>
<text text-anchor="middle" x="500" y="-348.9" style="font-family:Times New Roman;font-size:14.00;">CurrenciesController</text>
<polyline style="fill:none;stroke:black;" points="421,-341 580,-341 "/>
<text text-anchor="start" x="428.5" y="-324.4" style="font-family:Times New Roman;font-size:14.00;">create</text>
<text text-anchor="start" x="428.5" y="-307.4" style="font-family:Times New Roman;font-size:14.00;">currentrate</text>
<text text-anchor="start" x="428.5" y="-290.4" style="font-family:Times New Roman;font-size:14.00;">destroy</text>
<text text-anchor="start" x="428.5" y="-273.4" style="font-family:Times New Roman;font-size:14.00;">edit</text>
<text text-anchor="start" x="428.5" y="-256.4" style="font-family:Times New Roman;font-size:14.00;">index</text>
<text text-anchor="start" x="428.5" y="-239.4" style="font-family:Times New Roman;font-size:14.00;">new</text>
<text text-anchor="start" x="428.5" y="-222.4" style="font-family:Times New Roman;font-size:14.00;">show</text>
<text text-anchor="start" x="428.5" y="-205.4" style="font-family:Times New Roman;font-size:14.00;">update</text>
<polyline style="fill:none;stroke:black;" points="421,-197 580,-197 "/>
<polyline style="fill:none;stroke:black;" points="421,-173 580,-173 "/>
<text text-anchor="start" x="428.5" y="-155.9" style="font-family:Times New Roman;font-size:14.00;">_layout</text>
</g>
<!-- SettingsController -->
<g id="node6" class="node"><title>SettingsController</title>
<polyline style="fill:none;stroke:black;" points="643,-609 761,-609 "/>
<path style="fill:none;stroke:black;" d="M761,-609C767,-609 773,-615 773,-621"/>
<polyline style="fill:none;stroke:black;" points="773,-621 773,-730 "/>
<path style="fill:none;stroke:black;" d="M773,-730C773,-736 767,-742 761,-742"/>
<polyline style="fill:none;stroke:black;" points="761,-742 643,-742 "/>
<path style="fill:none;stroke:black;" d="M643,-742C637,-742 631,-736 631,-730"/>
<polyline style="fill:none;stroke:black;" points="631,-730 631,-621 "/>
<path style="fill:none;stroke:black;" d="M631,-621C631,-615 637,-609 643,-609"/>
<text text-anchor="middle" x="702" y="-724.9" style="font-family:Times New Roman;font-size:14.00;">SettingsController</text>
<polyline style="fill:none;stroke:black;" points="631,-717 773,-717 "/>
<text text-anchor="start" x="639" y="-699.9" style="font-family:Times New Roman;font-size:14.00;">edit</text>
<text text-anchor="start" x="639" y="-682.9" style="font-family:Times New Roman;font-size:14.00;">index</text>
<text text-anchor="start" x="639" y="-665.9" style="font-family:Times New Roman;font-size:14.00;">update</text>
<polyline style="fill:none;stroke:black;" points="631,-658 773,-658 "/>
<polyline style="fill:none;stroke:black;" points="631,-634 773,-634 "/>
<text text-anchor="start" x="639" y="-616.9" style="font-family:Times New Roman;font-size:14.00;">_layout</text>
</g>
<!-- ExratesController -->
<g id="node7" class="node"><title>ExratesController</title>
<polyline style="fill:none;stroke:black;" points="13,-273 127,-273 "/>
<path style="fill:none;stroke:black;" d="M127,-273C133,-273 139,-279 139,-285"/>
<polyline style="fill:none;stroke:black;" points="139,-285 139,-462 "/>
<path style="fill:none;stroke:black;" d="M139,-462C139,-468 133,-474 127,-474"/>
<polyline style="fill:none;stroke:black;" points="127,-474 13,-474 "/>
<path style="fill:none;stroke:black;" d="M13,-474C7,-474 1,-468 1,-462"/>
<polyline style="fill:none;stroke:black;" points="1,-462 1,-285 "/>
<path style="fill:none;stroke:black;" d="M1,-285C1,-279 7,-273 13,-273"/>
<text text-anchor="middle" x="70" y="-456.9" style="font-family:Times New Roman;font-size:14.00;">ExratesController</text>
<polyline style="fill:none;stroke:black;" points="1,-449 139,-449 "/>
<text text-anchor="start" x="9" y="-431.9" style="font-family:Times New Roman;font-size:14.00;">create</text>
<text text-anchor="start" x="9" y="-414.9" style="font-family:Times New Roman;font-size:14.00;">destroy</text>
<text text-anchor="start" x="9" y="-397.9" style="font-family:Times New Roman;font-size:14.00;">edit</text>
<text text-anchor="start" x="9" y="-380.9" style="font-family:Times New Roman;font-size:14.00;">index</text>
<text text-anchor="start" x="9" y="-363.9" style="font-family:Times New Roman;font-size:14.00;">new</text>
<text text-anchor="start" x="9" y="-346.9" style="font-family:Times New Roman;font-size:14.00;">show</text>
<text text-anchor="start" x="9" y="-329.9" style="font-family:Times New Roman;font-size:14.00;">update</text>
<polyline style="fill:none;stroke:black;" points="1,-322 139,-322 "/>
<polyline style="fill:none;stroke:black;" points="1,-298 139,-298 "/>
<text text-anchor="start" x="9" y="-280.9" style="font-family:Times New Roman;font-size:14.00;">_layout</text>
</g>
<!-- ContactsController -->
<g id="node8" class="node"><title>ContactsController</title>
<polyline style="fill:none;stroke:black;" points="181,-148 394,-148 "/>
<path style="fill:none;stroke:black;" d="M394,-148C400,-148 406,-154 406,-160"/>
<polyline style="fill:none;stroke:black;" points="406,-160 406,-354 "/>
<path style="fill:none;stroke:black;" d="M406,-354C406,-360 400,-366 394,-366"/>
<polyline style="fill:none;stroke:black;" points="394,-366 181,-366 "/>
<path style="fill:none;stroke:black;" d="M181,-366C175,-366 169,-360 169,-354"/>
<polyline style="fill:none;stroke:black;" points="169,-354 169,-160 "/>
<path style="fill:none;stroke:black;" d="M169,-160C169,-154 175,-148 181,-148"/>
<text text-anchor="middle" x="287" y="-348.9" style="font-family:Times New Roman;font-size:14.00;">ContactsController</text>
<polyline style="fill:none;stroke:black;" points="169,-341 406,-341 "/>
<text text-anchor="start" x="176.5" y="-324.4" style="font-family:Times New Roman;font-size:14.00;">_one_time_conditions_valid_46?</text>
<text text-anchor="start" x="176.5" y="-307.4" style="font-family:Times New Roman;font-size:14.00;">create</text>
<text text-anchor="start" x="176.5" y="-290.4" style="font-family:Times New Roman;font-size:14.00;">destroy</text>
<text text-anchor="start" x="176.5" y="-273.4" style="font-family:Times New Roman;font-size:14.00;">edit</text>
<text text-anchor="start" x="176.5" y="-256.4" style="font-family:Times New Roman;font-size:14.00;">new</text>
<text text-anchor="start" x="176.5" y="-239.4" style="font-family:Times New Roman;font-size:14.00;">update</text>
<polyline style="fill:none;stroke:black;" points="169,-231 406,-231 "/>
<polyline style="fill:none;stroke:black;" points="169,-207 406,-207 "/>
<text text-anchor="start" x="176.5" y="-189.9" style="font-family:Times New Roman;font-size:14.00;">_layout</text>
<text text-anchor="start" x="176.5" y="-172.9" style="font-family:Times New Roman;font-size:14.00;">_run_process_action_callbacks</text>
<text text-anchor="start" x="176.5" y="-155.9" style="font-family:Times New Roman;font-size:14.00;">find_customer</text>
</g>
<!-- ApplicationController -->
<g id="node9" class="node"><title>ApplicationController</title>
<polyline style="fill:none;stroke:black;" points="307,-0 520,-0 "/>
<path style="fill:none;stroke:black;" d="M520,-0C526,-0 532,-6 532,-12"/>
<polyline style="fill:none;stroke:black;" points="532,-12 532,-121 "/>
<path style="fill:none;stroke:black;" d="M532,-121C532,-127 526,-133 520,-133"/>
<polyline style="fill:none;stroke:black;" points="520,-133 307,-133 "/>
<path style="fill:none;stroke:black;" d="M307,-133C301,-133 295,-127 295,-121"/>
<polyline style="fill:none;stroke:black;" points="295,-121 295,-12 "/>
<path style="fill:none;stroke:black;" d="M295,-12C295,-6 301,-0 307,-0"/>
<text text-anchor="middle" x="413" y="-115.9" style="font-family:Times New Roman;font-size:14.00;">ApplicationController</text>
<polyline style="fill:none;stroke:black;" points="295,-108 532,-108 "/>
<text text-anchor="start" x="302.5" y="-91.4" style="font-family:Times New Roman;font-size:14.00;">_one_time_conditions_valid_32?</text>
<text text-anchor="start" x="302.5" y="-74.4" style="font-family:Times New Roman;font-size:14.00;">_one_time_conditions_valid_34?</text>
<polyline style="fill:none;stroke:black;" points="295,-66 532,-66 "/>
<polyline style="fill:none;stroke:black;" points="295,-42 532,-42 "/>
<text text-anchor="start" x="302.5" y="-25.4" style="font-family:Times New Roman;font-size:14.00;">_layout</text>
<text text-anchor="start" x="302.5" y="-8.4" style="font-family:Times New Roman;font-size:14.00;">_run_process_action_callbacks</text>
</g>
<!-- CustomersController -->
<g id="node10" class="node"><title>CustomersController</title>
<polyline style="fill:none;stroke:black;" points="97,-484 232,-484 "/>
<path style="fill:none;stroke:black;" d="M232,-484C238,-484 244,-490 244,-496"/>
<polyline style="fill:none;stroke:black;" points="244,-496 244,-690 "/>
<path style="fill:none;stroke:black;" d="M244,-690C244,-696 238,-702 232,-702"/>
<polyline style="fill:none;stroke:black;" points="232,-702 97,-702 "/>
<path style="fill:none;stroke:black;" d="M97,-702C91,-702 85,-696 85,-690"/>
<polyline style="fill:none;stroke:black;" points="85,-690 85,-496 "/>
<path style="fill:none;stroke:black;" d="M85,-496C85,-490 91,-484 97,-484"/>
<text text-anchor="middle" x="164" y="-684.9" style="font-family:Times New Roman;font-size:14.00;">CustomersController</text>
<polyline style="fill:none;stroke:black;" points="85,-677 244,-677 "/>
<text text-anchor="start" x="92.5" y="-660.4" style="font-family:Times New Roman;font-size:14.00;">create</text>
<text text-anchor="start" x="92.5" y="-643.4" style="font-family:Times New Roman;font-size:14.00;">destroy</text>
<text text-anchor="start" x="92.5" y="-626.4" style="font-family:Times New Roman;font-size:14.00;">edit</text>
<text text-anchor="start" x="92.5" y="-609.4" style="font-family:Times New Roman;font-size:14.00;">getcontacts</text>
<text text-anchor="start" x="92.5" y="-592.4" style="font-family:Times New Roman;font-size:14.00;">index</text>
<text text-anchor="start" x="92.5" y="-575.4" style="font-family:Times New Roman;font-size:14.00;">new</text>
<text text-anchor="start" x="92.5" y="-558.4" style="font-family:Times New Roman;font-size:14.00;">show</text>
<text text-anchor="start" x="92.5" y="-541.4" style="font-family:Times New Roman;font-size:14.00;">update</text>
<polyline style="fill:none;stroke:black;" points="85,-533 244,-533 "/>
<polyline style="fill:none;stroke:black;" points="85,-509 244,-509 "/>
<text text-anchor="start" x="92.5" y="-491.9" style="font-family:Times New Roman;font-size:14.00;">_layout</text>
</g>
<!-- RegistrationsController -->
<g id="node11" class="node"><title>RegistrationsController</title>
<polyline style="fill:none;stroke:black;" points="601,-127 752,-127 "/>
<path style="fill:none;stroke:black;" d="M752,-127C758,-127 764,-133 764,-139"/>
<polyline style="fill:none;stroke:black;" points="764,-139 764,-265 "/>
<path style="fill:none;stroke:black;" d="M764,-265C764,-271 758,-277 752,-277"/>
<polyline style="fill:none;stroke:black;" points="752,-277 601,-277 "/>
<path style="fill:none;stroke:black;" d="M601,-277C595,-277 589,-271 589,-265"/>
<polyline style="fill:none;stroke:black;" points="589,-265 589,-139 "/>
<path style="fill:none;stroke:black;" d="M589,-139C589,-133 595,-127 601,-127"/>
<text text-anchor="middle" x="676" y="-259.9" style="font-family:Times New Roman;font-size:14.00;">RegistrationsController</text>
<polyline style="fill:none;stroke:black;" points="589,-252 764,-252 "/>
<text text-anchor="start" x="596.5" y="-235.4" style="font-family:Times New Roman;font-size:14.00;">create</text>
<text text-anchor="start" x="596.5" y="-218.4" style="font-family:Times New Roman;font-size:14.00;">edit</text>
<text text-anchor="start" x="596.5" y="-201.4" style="font-family:Times New Roman;font-size:14.00;">new</text>
<text text-anchor="start" x="596.5" y="-184.4" style="font-family:Times New Roman;font-size:14.00;">update</text>
<polyline style="fill:none;stroke:black;" points="589,-176 764,-176 "/>
<polyline style="fill:none;stroke:black;" points="589,-152 764,-152 "/>
<text text-anchor="start" x="596.5" y="-134.9" style="font-family:Times New Roman;font-size:14.00;">_layout</text>
</g>
<!-- CommissionsController -->
<g id="node12" class="node"><title>CommissionsController</title>
<polyline style="fill:none;stroke:black;" points="412,-379 562,-379 "/>
<path style="fill:none;stroke:black;" d="M562,-379C568,-379 574,-385 574,-391"/>
<polyline style="fill:none;stroke:black;" points="574,-391 574,-585 "/>
<path style="fill:none;stroke:black;" d="M574,-585C574,-591 568,-597 562,-597"/>
<polyline style="fill:none;stroke:black;" points="562,-597 412,-597 "/>
<path style="fill:none;stroke:black;" d="M412,-597C406,-597 400,-591 400,-585"/>
<polyline style="fill:none;stroke:black;" points="400,-585 400,-391 "/>
<path style="fill:none;stroke:black;" d="M400,-391C400,-385 406,-379 412,-379"/>
<text text-anchor="middle" x="487" y="-579.9" style="font-family:Times New Roman;font-size:14.00;">CommissionsController</text>
<polyline style="fill:none;stroke:black;" points="400,-572 574,-572 "/>
<text text-anchor="start" x="408" y="-555.4" style="font-family:Times New Roman;font-size:14.00;">create</text>
<text text-anchor="start" x="408" y="-538.4" style="font-family:Times New Roman;font-size:14.00;">destroy</text>
<text text-anchor="start" x="408" y="-521.4" style="font-family:Times New Roman;font-size:14.00;">edit</text>
<text text-anchor="start" x="408" y="-504.4" style="font-family:Times New Roman;font-size:14.00;">getcommission</text>
<text text-anchor="start" x="408" y="-487.4" style="font-family:Times New Roman;font-size:14.00;">index</text>
<text text-anchor="start" x="408" y="-470.4" style="font-family:Times New Roman;font-size:14.00;">new</text>
<text text-anchor="start" x="408" y="-453.4" style="font-family:Times New Roman;font-size:14.00;">show</text>
<text text-anchor="start" x="408" y="-436.4" style="font-family:Times New Roman;font-size:14.00;">update</text>
<polyline style="fill:none;stroke:black;" points="400,-428 574,-428 "/>
<polyline style="fill:none;stroke:black;" points="400,-404 574,-404 "/>
<text text-anchor="start" x="408" y="-386.9" style="font-family:Times New Roman;font-size:14.00;">_layout</text>
</g>
<!-- AgentsController -->
<g id="node13" class="node"><title>AgentsController</title>
<polyline style="fill:none;stroke:black;" points="34,-63 143,-63 "/>
<path style="fill:none;stroke:black;" d="M143,-63C149,-63 155,-69 155,-75"/>
<polyline style="fill:none;stroke:black;" points="155,-75 155,-252 "/>
<path style="fill:none;stroke:black;" d="M155,-252C155,-258 149,-264 143,-264"/>
<polyline style="fill:none;stroke:black;" points="143,-264 34,-264 "/>
<path style="fill:none;stroke:black;" d="M34,-264C28,-264 22,-258 22,-252"/>
<polyline style="fill:none;stroke:black;" points="22,-252 22,-75 "/>
<path style="fill:none;stroke:black;" d="M22,-75C22,-69 28,-63 34,-63"/>
<text text-anchor="middle" x="88" y="-246.9" style="font-family:Times New Roman;font-size:14.00;">AgentsController</text>
<polyline style="fill:none;stroke:black;" points="22,-239 155,-239 "/>
<text text-anchor="start" x="29.5" y="-221.9" style="font-family:Times New Roman;font-size:14.00;">create</text>
<text text-anchor="start" x="29.5" y="-204.9" style="font-family:Times New Roman;font-size:14.00;">destroy</text>
<text text-anchor="start" x="29.5" y="-187.9" style="font-family:Times New Roman;font-size:14.00;">edit</text>
<text text-anchor="start" x="29.5" y="-170.9" style="font-family:Times New Roman;font-size:14.00;">index</text>
<text text-anchor="start" x="29.5" y="-153.9" style="font-family:Times New Roman;font-size:14.00;">new</text>
<text text-anchor="start" x="29.5" y="-136.9" style="font-family:Times New Roman;font-size:14.00;">show</text>
<text text-anchor="start" x="29.5" y="-119.9" style="font-family:Times New Roman;font-size:14.00;">update</text>
<polyline style="fill:none;stroke:black;" points="22,-112 155,-112 "/>
<polyline style="fill:none;stroke:black;" points="22,-88 155,-88 "/>
<text text-anchor="start" x="29.5" y="-70.9" style="font-family:Times New Roman;font-size:14.00;">_layout</text>
</g>
</g>
</svg>
