<?xml version="1.0" encoding="UTF-8" standalone="no"?>
<!DOCTYPE svg PUBLIC "-//W3C//DTD SVG 1.0//EN"
 "http://www.w3.org/TR/2001/REC-SVG-20010904/DTD/svg10.dtd" [
 <!ATTLIST svg xmlns:xlink CDATA #FIXED "http://www.w3.org/1999/xlink">
]>
<!-- Generated by Graphviz version 2.20.2 (Tue Mar &#160;2 21:46:26 UTC 2010)
     For user: (mani) N.Subramanian,,, -->
<!-- Title: models_diagram Pages: 1 -->
<svg width="1038pt" height="174pt"
 viewBox="0.00 0.00 1038.00 174.00" xmlns="http://www.w3.org/2000/svg" xmlns:xlink="http://www.w3.org/1999/xlink">
<g id="graph0" class="graph" transform="scale(1 1) rotate(0) translate(4 170)">
<title>models_diagram</title>
<polygon style="fill:white;stroke:white;" points="-4,4 -4,-170 1034,-170 1034,4 -4,4"/>
<!-- _diagram_info -->
<g id="node1" class="node"><title>_diagram_info</title>
<text text-anchor="start" x="7.5" y="-149.8" style="font-family:Times New Roman;font-size:13.00;">Models diagram</text>
<text text-anchor="start" x="7.5" y="-132.8" style="font-family:Times New Roman;font-size:13.00;">Date: Nov 30 2010 &#45; 09:50</text>
<text text-anchor="start" x="7.5" y="-115.8" style="font-family:Times New Roman;font-size:13.00;">Migration version: 20100930135636</text>
<text text-anchor="start" x="7.5" y="-98.8" style="font-family:Times New Roman;font-size:13.00;">Generated by RailRoady 0.11.2</text>
<text text-anchor="start" x="7.5" y="-81.8" style="font-family:Times New Roman;font-size:13.00;">http://railroady.prestonlee.com</text>
</g>
<!-- Order -->
<g id="node2" class="node"><title>Order</title>
<ellipse style="fill:none;stroke:black;" cx="270" cy="-18" rx="38.9134" ry="18"/>
<text text-anchor="middle" x="270" y="-13.9" style="font-family:Times New Roman;font-size:14.00;">Order</text>
</g>
<!-- Commission -->
<g id="node3" class="node"><title>Commission</title>
<ellipse style="fill:none;stroke:black;" cx="466" cy="-119" rx="68.0985" ry="18"/>
<text text-anchor="middle" x="466" y="-114.9" style="font-family:Times New Roman;font-size:14.00;">Commission</text>
</g>
<!-- User -->
<g id="node4" class="node"><title>User</title>
<ellipse style="fill:none;stroke:black;" cx="585" cy="-119" rx="32.8565" ry="18"/>
<text text-anchor="middle" x="585" y="-114.9" style="font-family:Times New Roman;font-size:14.00;">User</text>
</g>
<!-- Ability -->
<g id="node5" class="node"><title>Ability</title>
<polygon style="fill:none;stroke:black;" points="696,-137 636,-137 636,-101 696,-101 696,-137"/>
<text text-anchor="middle" x="666" y="-114.9" style="font-family:Times New Roman;font-size:14.00;">Ability</text>
</g>
<!-- Agent -->
<g id="node6" class="node"><title>Agent</title>
<ellipse style="fill:none;stroke:black;" cx="753" cy="-119" rx="39.1069" ry="18"/>
<text text-anchor="middle" x="753" y="-114.9" style="font-family:Times New Roman;font-size:14.00;">Agent</text>
</g>
<!-- Contact -->
<g id="node7" class="node"><title>Contact</title>
<ellipse style="fill:none;stroke:black;" cx="375" cy="-18" rx="48.1403" ry="18"/>
<text text-anchor="middle" x="375" y="-13.9" style="font-family:Times New Roman;font-size:14.00;">Contact</text>
</g>
<!-- Currency -->
<g id="node8" class="node"><title>Currency</title>
<ellipse style="fill:none;stroke:black;" cx="865" cy="-119" rx="54.8957" ry="18"/>
<text text-anchor="middle" x="865" y="-114.9" style="font-family:Times New Roman;font-size:14.00;">Currency</text>
</g>
<!-- Exrate -->
<g id="node10" class="node"><title>Exrate</title>
<ellipse style="fill:none;stroke:black;" cx="865" cy="-18" rx="43.0827" ry="18"/>
<text text-anchor="middle" x="865" y="-13.9" style="font-family:Times New Roman;font-size:14.00;">Exrate</text>
</g>
<!-- Currency&#45;&gt;Exrate -->
<g id="edge2" class="edge"><title>Currency&#45;&gt;Exrate</title>
<path style="fill:none;stroke:black;" d="M865,-93C865,-79 865,-61 865,-46"/>
<ellipse style="fill:none;stroke:black;" cx="865" cy="-97" rx="4" ry="4"/>
<polygon style="fill:black;stroke:black;" points="865,-46 869.5,-36 865,-41 865,-36 865,-36 865,-36 865,-41 860.5,-36 865,-46 865,-46"/>
</g>
<!-- Customer -->
<g id="node9" class="node"><title>Customer</title>
<ellipse style="fill:none;stroke:black;" cx="323" cy="-119" rx="57.1737" ry="18"/>
<text text-anchor="middle" x="323" y="-114.9" style="font-family:Times New Roman;font-size:14.00;">Customer</text>
</g>
<!-- Customer&#45;&gt;Order -->
<g id="edge6" class="edge"><title>Customer&#45;&gt;Order</title>
<path style="fill:none;stroke:black;" d="M310,-94C302,-79 292,-60 284,-45"/>
<ellipse style="fill:none;stroke:black;" cx="312.015" cy="-97.527" rx="4.00002" ry="4.00002"/>
<polygon style="fill:black;stroke:black;" points="283.856,-44.7416 282.934,-33.8146 281.428,-40.3708 279,-36 279,-36 279,-36 281.428,-40.3708 275.066,-38.1854 283.856,-44.7416 283.856,-44.7416"/>
</g>
<!-- Customer&#45;&gt;Contact -->
<g id="edge4" class="edge"><title>Customer&#45;&gt;Contact</title>
<path style="fill:none;stroke:black;" d="M336,-94C343,-79 353,-60 361,-45"/>
<ellipse style="fill:none;stroke:black;" cx="333.985" cy="-97.527" rx="4.00002" ry="4.00002"/>
<polygon style="fill:black;stroke:black;" points="361.144,-44.7416 369.934,-38.1854 363.572,-40.3708 366,-36 366,-36 366,-36 363.572,-40.3708 362.066,-33.8146 361.144,-44.7416 361.144,-44.7416"/>
</g>
<!-- Setting -->
<g id="node11" class="node"><title>Setting</title>
<ellipse style="fill:none;stroke:black;" cx="984" cy="-119" rx="45.8622" ry="18"/>
<text text-anchor="middle" x="984" y="-114.9" style="font-family:Times New Roman;font-size:14.00;">Setting</text>
</g>
</g>
</svg>
