<?xml version="1.0" encoding="UTF-8" standalone="no"?>
<!DOCTYPE svg PUBLIC "-//W3C//DTD SVG 1.0//EN"
 "http://www.w3.org/TR/2001/REC-SVG-20010904/DTD/svg10.dtd" [
 <!ATTLIST svg xmlns:xlink CDATA #FIXED "http://www.w3.org/1999/xlink">
]>
<!-- Generated by Graphviz version 2.20.2 (Tue Mar &#160;2 21:46:26 UTC 2010)
     For user: (mani) N.Subramanian,,, -->
<!-- Title: models_diagram Pages: 1 -->
<svg width="1570pt" height="790pt"
 viewBox="0.00 0.00 1570.00 790.00" xmlns="http://www.w3.org/2000/svg" xmlns:xlink="http://www.w3.org/1999/xlink">
<g id="graph0" class="graph" transform="scale(1 1) rotate(0) translate(4 786)">
<title>models_diagram</title>
<polygon style="fill:white;stroke:white;" points="-4,4 -4,-786 1566,-786 1566,4 -4,4"/>
<!-- _diagram_info -->
<g id="node1" class="node"><title>_diagram_info</title>
<text text-anchor="start" x="7.5" y="-651.8" style="font-family:Times New Roman;font-size:13.00;">Models diagram</text>
<text text-anchor="start" x="7.5" y="-634.8" style="font-family:Times New Roman;font-size:13.00;">Date: Nov 30 2010 &#45; 09:49</text>
<text text-anchor="start" x="7.5" y="-617.8" style="font-family:Times New Roman;font-size:13.00;">Migration version: 20100930135636</text>
<text text-anchor="start" x="7.5" y="-600.8" style="font-family:Times New Roman;font-size:13.00;">Generated by RailRoady 0.11.2</text>
<text text-anchor="start" x="7.5" y="-583.8" style="font-family:Times New Roman;font-size:13.00;">http://railroady.prestonlee.com</text>
</g>
<!-- Order -->
<g id="node2" class="node"><title>Order</title>
<polyline style="fill:none;stroke:black;" points="164,-0 346,-0 "/>
<path style="fill:none;stroke:black;" d="M346,-0C352,-0 358,-6 358,-12"/>
<polyline style="fill:none;stroke:black;" points="358,-12 358,-412 "/>
<path style="fill:none;stroke:black;" d="M358,-412C358,-418 352,-424 346,-424"/>
<polyline style="fill:none;stroke:black;" points="346,-424 164,-424 "/>
<path style="fill:none;stroke:black;" d="M164,-424C158,-424 152,-418 152,-412"/>
<polyline style="fill:none;stroke:black;" points="152,-412 152,-12 "/>
<path style="fill:none;stroke:black;" d="M152,-12C152,-6 158,-0 164,-0"/>
<text text-anchor="middle" x="255" y="-406.9" style="font-family:Times New Roman;font-size:14.00;">Order</text>
<polyline style="fill:none;stroke:black;" points="152,-399 358,-399 "/>
<text text-anchor="start" x="160" y="-381.9" style="font-family:Times New Roman;font-size:14.00;">date :date</text>
<text text-anchor="start" x="160" y="-364.9" style="font-family:Times New Roman;font-size:14.00;">time :time</text>
<text text-anchor="start" x="160" y="-347.9" style="font-family:Times New Roman;font-size:14.00;">receiver_name :string</text>
<text text-anchor="start" x="160" y="-330.9" style="font-family:Times New Roman;font-size:14.00;">street :string</text>
<text text-anchor="start" x="160" y="-313.9" style="font-family:Times New Roman;font-size:14.00;">city :string</text>
<text text-anchor="start" x="160" y="-296.9" style="font-family:Times New Roman;font-size:14.00;">postcode :string</text>
<text text-anchor="start" x="160" y="-279.9" style="font-family:Times New Roman;font-size:14.00;">district :string</text>
<text text-anchor="start" x="160" y="-262.9" style="font-family:Times New Roman;font-size:14.00;">state :string</text>
<text text-anchor="start" x="160" y="-245.9" style="font-family:Times New Roman;font-size:14.00;">country :string</text>
<text text-anchor="start" x="160" y="-228.9" style="font-family:Times New Roman;font-size:14.00;">telephone :string</text>
<text text-anchor="start" x="160" y="-211.9" style="font-family:Times New Roman;font-size:14.00;">mobile_phone :string</text>
<text text-anchor="start" x="160" y="-194.9" style="font-family:Times New Roman;font-size:14.00;">email :string</text>
<text text-anchor="start" x="160" y="-177.9" style="font-family:Times New Roman;font-size:14.00;">amount :decimal</text>
<text text-anchor="start" x="160" y="-160.9" style="font-family:Times New Roman;font-size:14.00;">amount_to_deliver :decimal</text>
<text text-anchor="start" x="160" y="-143.9" style="font-family:Times New Roman;font-size:14.00;">delivery_currency :string</text>
<text text-anchor="start" x="160" y="-126.9" style="font-family:Times New Roman;font-size:14.00;">ex_rate :decimal</text>
<text text-anchor="start" x="160" y="-109.9" style="font-family:Times New Roman;font-size:14.00;">delivery_status :string</text>
<text text-anchor="start" x="160" y="-92.9" style="font-family:Times New Roman;font-size:14.00;">delivered_on :datetime</text>
<text text-anchor="start" x="160" y="-75.9" style="font-family:Times New Roman;font-size:14.00;">commission :decimal</text>
<text text-anchor="start" x="160" y="-58.9" style="font-family:Times New Roman;font-size:14.00;">charge :integer</text>
<text text-anchor="start" x="160" y="-41.9" style="font-family:Times New Roman;font-size:14.00;">remarks :text</text>
<text text-anchor="start" x="160" y="-24.9" style="font-family:Times New Roman;font-size:14.00;">created_at :datetime</text>
<text text-anchor="start" x="160" y="-7.9" style="font-family:Times New Roman;font-size:14.00;">updated_at :datetime</text>
</g>
<!-- Commission -->
<g id="node3" class="node"><title>Commission</title>
<polyline style="fill:none;stroke:black;" points="480,-545 625,-545 "/>
<path style="fill:none;stroke:black;" d="M625,-545C631,-545 637,-551 637,-557"/>
<polyline style="fill:none;stroke:black;" points="637,-557 637,-685 "/>
<path style="fill:none;stroke:black;" d="M637,-685C637,-691 631,-697 625,-697"/>
<polyline style="fill:none;stroke:black;" points="625,-697 480,-697 "/>
<path style="fill:none;stroke:black;" d="M480,-697C474,-697 468,-691 468,-685"/>
<polyline style="fill:none;stroke:black;" points="468,-685 468,-557 "/>
<path style="fill:none;stroke:black;" d="M468,-557C468,-551 474,-545 480,-545"/>
<text text-anchor="middle" x="552" y="-679.9" style="font-family:Times New Roman;font-size:14.00;">Commission</text>
<polyline style="fill:none;stroke:black;" points="468,-672 637,-672 "/>
<text text-anchor="start" x="475.5" y="-654.9" style="font-family:Times New Roman;font-size:14.00;">from_amount :decimal</text>
<text text-anchor="start" x="475.5" y="-637.9" style="font-family:Times New Roman;font-size:14.00;">to_amount :decimal</text>
<text text-anchor="start" x="475.5" y="-620.9" style="font-family:Times New Roman;font-size:14.00;">commission :decimal</text>
<text text-anchor="start" x="475.5" y="-603.9" style="font-family:Times New Roman;font-size:14.00;">charge :decimal</text>
<text text-anchor="start" x="475.5" y="-586.9" style="font-family:Times New Roman;font-size:14.00;">remarks :text</text>
<text text-anchor="start" x="475.5" y="-569.9" style="font-family:Times New Roman;font-size:14.00;">created_at :datetime</text>
<text text-anchor="start" x="475.5" y="-552.9" style="font-family:Times New Roman;font-size:14.00;">updated_at :datetime</text>
</g>
<!-- User -->
<g id="node4" class="node"><title>User</title>
<polyline style="fill:none;stroke:black;" points="666,-460 880,-460 "/>
<path style="fill:none;stroke:black;" d="M880,-460C886,-460 892,-466 892,-472"/>
<polyline style="fill:none;stroke:black;" points="892,-472 892,-770 "/>
<path style="fill:none;stroke:black;" d="M892,-770C892,-776 886,-782 880,-782"/>
<polyline style="fill:none;stroke:black;" points="880,-782 666,-782 "/>
<path style="fill:none;stroke:black;" d="M666,-782C660,-782 654,-776 654,-770"/>
<polyline style="fill:none;stroke:black;" points="654,-770 654,-472 "/>
<path style="fill:none;stroke:black;" d="M654,-472C654,-466 660,-460 666,-460"/>
<text text-anchor="middle" x="773" y="-764.9" style="font-family:Times New Roman;font-size:14.00;">User</text>
<polyline style="fill:none;stroke:black;" points="654,-757 892,-757 "/>
<text text-anchor="start" x="662" y="-739.9" style="font-family:Times New Roman;font-size:14.00;">email :string</text>
<text text-anchor="start" x="662" y="-722.9" style="font-family:Times New Roman;font-size:14.00;">encrypted_password :string</text>
<text text-anchor="start" x="662" y="-705.9" style="font-family:Times New Roman;font-size:14.00;">password_salt :string</text>
<text text-anchor="start" x="662" y="-688.9" style="font-family:Times New Roman;font-size:14.00;">reset_password_token :string</text>
<text text-anchor="start" x="662" y="-671.9" style="font-family:Times New Roman;font-size:14.00;">remember_token :string</text>
<text text-anchor="start" x="662" y="-654.9" style="font-family:Times New Roman;font-size:14.00;">remember_created_at :datetime</text>
<text text-anchor="start" x="662" y="-637.9" style="font-family:Times New Roman;font-size:14.00;">current_sign_in_at :datetime</text>
<text text-anchor="start" x="662" y="-620.9" style="font-family:Times New Roman;font-size:14.00;">last_sign_in_at :datetime</text>
<text text-anchor="start" x="662" y="-603.9" style="font-family:Times New Roman;font-size:14.00;">current_sign_in_ip :string</text>
<text text-anchor="start" x="662" y="-586.9" style="font-family:Times New Roman;font-size:14.00;">last_sign_in_ip :string</text>
<text text-anchor="start" x="662" y="-569.9" style="font-family:Times New Roman;font-size:14.00;">failed_attempts :integer</text>
<text text-anchor="start" x="662" y="-552.9" style="font-family:Times New Roman;font-size:14.00;">unlock_token :string</text>
<text text-anchor="start" x="662" y="-535.9" style="font-family:Times New Roman;font-size:14.00;">locked_at :datetime</text>
<text text-anchor="start" x="662" y="-518.9" style="font-family:Times New Roman;font-size:14.00;">created_at :datetime</text>
<text text-anchor="start" x="662" y="-501.9" style="font-family:Times New Roman;font-size:14.00;">updated_at :datetime</text>
<text text-anchor="start" x="662" y="-484.9" style="font-family:Times New Roman;font-size:14.00;">username :string</text>
<text text-anchor="start" x="662" y="-467.9" style="font-family:Times New Roman;font-size:14.00;">userlevel :string</text>
</g>
<!-- Ability -->
<g id="node5" class="node"><title>Ability</title>
<polygon style="fill:none;stroke:black;" points="910,-596 910,-646 970,-646 970,-596 910,-596"/>
<text text-anchor="middle" x="940" y="-628.9" style="font-family:Times New Roman;font-size:14.00;">Ability</text>
<polyline style="fill:none;stroke:black;" points="910,-621 970,-621 "/>
<text text-anchor="middle" x="940" y="-603.9" style="font-family:Times New Roman;font-size:14.00;"> </text>
</g>
<!-- Agent -->
<g id="node6" class="node"><title>Agent</title>
<polyline style="fill:none;stroke:black;" points="1000,-494 1141,-494 "/>
<path style="fill:none;stroke:black;" d="M1141,-494C1147,-494 1153,-500 1153,-506"/>
<polyline style="fill:none;stroke:black;" points="1153,-506 1153,-736 "/>
<path style="fill:none;stroke:black;" d="M1153,-736C1153,-742 1147,-748 1141,-748"/>
<polyline style="fill:none;stroke:black;" points="1141,-748 1000,-748 "/>
<path style="fill:none;stroke:black;" d="M1000,-748C994,-748 988,-742 988,-736"/>
<polyline style="fill:none;stroke:black;" points="988,-736 988,-506 "/>
<path style="fill:none;stroke:black;" d="M988,-506C988,-500 994,-494 1000,-494"/>
<text text-anchor="middle" x="1070" y="-730.9" style="font-family:Times New Roman;font-size:14.00;">Agent</text>
<polyline style="fill:none;stroke:black;" points="988,-723 1153,-723 "/>
<text text-anchor="start" x="995.5" y="-705.9" style="font-family:Times New Roman;font-size:14.00;">name :string</text>
<text text-anchor="start" x="995.5" y="-688.9" style="font-family:Times New Roman;font-size:14.00;">street :string</text>
<text text-anchor="start" x="995.5" y="-671.9" style="font-family:Times New Roman;font-size:14.00;">city :string</text>
<text text-anchor="start" x="995.5" y="-654.9" style="font-family:Times New Roman;font-size:14.00;">postcode :string</text>
<text text-anchor="start" x="995.5" y="-637.9" style="font-family:Times New Roman;font-size:14.00;">district :string</text>
<text text-anchor="start" x="995.5" y="-620.9" style="font-family:Times New Roman;font-size:14.00;">state :string</text>
<text text-anchor="start" x="995.5" y="-603.9" style="font-family:Times New Roman;font-size:14.00;">country :string</text>
<text text-anchor="start" x="995.5" y="-586.9" style="font-family:Times New Roman;font-size:14.00;">telephone :string</text>
<text text-anchor="start" x="995.5" y="-569.9" style="font-family:Times New Roman;font-size:14.00;">mobile :string</text>
<text text-anchor="start" x="995.5" y="-552.9" style="font-family:Times New Roman;font-size:14.00;">email :string</text>
<text text-anchor="start" x="995.5" y="-535.9" style="font-family:Times New Roman;font-size:14.00;">active :boolean</text>
<text text-anchor="start" x="995.5" y="-518.9" style="font-family:Times New Roman;font-size:14.00;">created_at :datetime</text>
<text text-anchor="start" x="995.5" y="-501.9" style="font-family:Times New Roman;font-size:14.00;">updated_at :datetime</text>
</g>
<!-- Contact -->
<g id="node7" class="node"><title>Contact</title>
<polyline style="fill:none;stroke:black;" points="388,-68 534,-68 "/>
<path style="fill:none;stroke:black;" d="M534,-68C540,-68 546,-74 546,-80"/>
<polyline style="fill:none;stroke:black;" points="546,-80 546,-344 "/>
<path style="fill:none;stroke:black;" d="M546,-344C546,-350 540,-356 534,-356"/>
<polyline style="fill:none;stroke:black;" points="534,-356 388,-356 "/>
<path style="fill:none;stroke:black;" d="M388,-356C382,-356 376,-350 376,-344"/>
<polyline style="fill:none;stroke:black;" points="376,-344 376,-80 "/>
<path style="fill:none;stroke:black;" d="M376,-80C376,-74 382,-68 388,-68"/>
<text text-anchor="middle" x="461" y="-338.9" style="font-family:Times New Roman;font-size:14.00;">Contact</text>
<polyline style="fill:none;stroke:black;" points="376,-331 546,-331 "/>
<text text-anchor="start" x="384" y="-313.9" style="font-family:Times New Roman;font-size:14.00;">contact_person :string</text>
<text text-anchor="start" x="384" y="-296.9" style="font-family:Times New Roman;font-size:14.00;">dob :date</text>
<text text-anchor="start" x="384" y="-279.9" style="font-family:Times New Roman;font-size:14.00;">sex :string</text>
<text text-anchor="start" x="384" y="-262.9" style="font-family:Times New Roman;font-size:14.00;">relationship :string</text>
<text text-anchor="start" x="384" y="-245.9" style="font-family:Times New Roman;font-size:14.00;">street :string</text>
<text text-anchor="start" x="384" y="-228.9" style="font-family:Times New Roman;font-size:14.00;">city :string</text>
<text text-anchor="start" x="384" y="-211.9" style="font-family:Times New Roman;font-size:14.00;">postcode :string</text>
<text text-anchor="start" x="384" y="-194.9" style="font-family:Times New Roman;font-size:14.00;">district :string</text>
<text text-anchor="start" x="384" y="-177.9" style="font-family:Times New Roman;font-size:14.00;">state :string</text>
<text text-anchor="start" x="384" y="-160.9" style="font-family:Times New Roman;font-size:14.00;">country :string</text>
<text text-anchor="start" x="384" y="-143.9" style="font-family:Times New Roman;font-size:14.00;">telephone :string</text>
<text text-anchor="start" x="384" y="-126.9" style="font-family:Times New Roman;font-size:14.00;">mobile :string</text>
<text text-anchor="start" x="384" y="-109.9" style="font-family:Times New Roman;font-size:14.00;">email :string</text>
<text text-anchor="start" x="384" y="-92.9" style="font-family:Times New Roman;font-size:14.00;">created_at :datetime</text>
<text text-anchor="start" x="384" y="-75.9" style="font-family:Times New Roman;font-size:14.00;">updated_at :datetime</text>
</g>
<!-- Currency -->
<g id="node8" class="node"><title>Currency</title>
<polyline style="fill:none;stroke:black;" points="1182,-562 1323,-562 "/>
<path style="fill:none;stroke:black;" d="M1323,-562C1329,-562 1335,-568 1335,-574"/>
<polyline style="fill:none;stroke:black;" points="1335,-574 1335,-668 "/>
<path style="fill:none;stroke:black;" d="M1335,-668C1335,-674 1329,-680 1323,-680"/>
<polyline style="fill:none;stroke:black;" points="1323,-680 1182,-680 "/>
<path style="fill:none;stroke:black;" d="M1182,-680C1176,-680 1170,-674 1170,-668"/>
<polyline style="fill:none;stroke:black;" points="1170,-668 1170,-574 "/>
<path style="fill:none;stroke:black;" d="M1170,-574C1170,-568 1176,-562 1182,-562"/>
<text text-anchor="middle" x="1252" y="-662.9" style="font-family:Times New Roman;font-size:14.00;">Currency</text>
<polyline style="fill:none;stroke:black;" points="1170,-655 1335,-655 "/>
<text text-anchor="start" x="1177.5" y="-637.9" style="font-family:Times New Roman;font-size:14.00;">name :string</text>
<text text-anchor="start" x="1177.5" y="-620.9" style="font-family:Times New Roman;font-size:14.00;">country :string</text>
<text text-anchor="start" x="1177.5" y="-603.9" style="font-family:Times New Roman;font-size:14.00;">full_name :string</text>
<text text-anchor="start" x="1177.5" y="-586.9" style="font-family:Times New Roman;font-size:14.00;">created_at :datetime</text>
<text text-anchor="start" x="1177.5" y="-569.9" style="font-family:Times New Roman;font-size:14.00;">updated_at :datetime</text>
</g>
<!-- Exrate -->
<g id="node10" class="node"><title>Exrate</title>
<polyline style="fill:none;stroke:black;" points="1182,-153 1323,-153 "/>
<path style="fill:none;stroke:black;" d="M1323,-153C1329,-153 1335,-159 1335,-165"/>
<polyline style="fill:none;stroke:black;" points="1335,-165 1335,-259 "/>
<path style="fill:none;stroke:black;" d="M1335,-259C1335,-265 1329,-271 1323,-271"/>
<polyline style="fill:none;stroke:black;" points="1323,-271 1182,-271 "/>
<path style="fill:none;stroke:black;" d="M1182,-271C1176,-271 1170,-265 1170,-259"/>
<polyline style="fill:none;stroke:black;" points="1170,-259 1170,-165 "/>
<path style="fill:none;stroke:black;" d="M1170,-165C1170,-159 1176,-153 1182,-153"/>
<text text-anchor="middle" x="1252" y="-253.9" style="font-family:Times New Roman;font-size:14.00;">Exrate</text>
<polyline style="fill:none;stroke:black;" points="1170,-246 1335,-246 "/>
<text text-anchor="start" x="1177.5" y="-228.9" style="font-family:Times New Roman;font-size:14.00;">ex_rate_date :date</text>
<text text-anchor="start" x="1177.5" y="-211.9" style="font-family:Times New Roman;font-size:14.00;">buy_rate :decimal</text>
<text text-anchor="start" x="1177.5" y="-194.9" style="font-family:Times New Roman;font-size:14.00;">sell_rate :decimal</text>
<text text-anchor="start" x="1177.5" y="-177.9" style="font-family:Times New Roman;font-size:14.00;">created_at :datetime</text>
<text text-anchor="start" x="1177.5" y="-160.9" style="font-family:Times New Roman;font-size:14.00;">updated_at :datetime</text>
</g>
<!-- Currency&#45;&gt;Exrate -->
<g id="edge2" class="edge"><title>Currency&#45;&gt;Exrate</title>
<path style="fill:none;stroke:black;" d="M1252,-554C1252,-480 1252,-358 1252,-281"/>
<ellipse style="fill:none;stroke:black;" cx="1252" cy="-558" rx="4" ry="4"/>
<polygon style="fill:black;stroke:black;" points="1252,-281 1256.5,-271 1252,-276 1252,-271 1252,-271 1252,-271 1252,-276 1247.5,-271 1252,-281 1252,-281"/>
</g>
<!-- Customer -->
<g id="node9" class="node"><title>Customer</title>
<polyline style="fill:none;stroke:black;" points="278,-460 438,-460 "/>
<path style="fill:none;stroke:black;" d="M438,-460C444,-460 450,-466 450,-472"/>
<polyline style="fill:none;stroke:black;" points="450,-472 450,-770 "/>
<path style="fill:none;stroke:black;" d="M450,-770C450,-776 444,-782 438,-782"/>
<polyline style="fill:none;stroke:black;" points="438,-782 278,-782 "/>
<path style="fill:none;stroke:black;" d="M278,-782C272,-782 266,-776 266,-770"/>
<polyline style="fill:none;stroke:black;" points="266,-770 266,-472 "/>
<path style="fill:none;stroke:black;" d="M266,-472C266,-466 272,-460 278,-460"/>
<text text-anchor="middle" x="358" y="-764.9" style="font-family:Times New Roman;font-size:14.00;">Customer</text>
<polyline style="fill:none;stroke:black;" points="266,-757 450,-757 "/>
<text text-anchor="start" x="274" y="-739.9" style="font-family:Times New Roman;font-size:14.00;">name :string</text>
<text text-anchor="start" x="274" y="-722.9" style="font-family:Times New Roman;font-size:14.00;">dob :date</text>
<text text-anchor="start" x="274" y="-705.9" style="font-family:Times New Roman;font-size:14.00;">sex :string</text>
<text text-anchor="start" x="274" y="-688.9" style="font-family:Times New Roman;font-size:14.00;">street :string</text>
<text text-anchor="start" x="274" y="-671.9" style="font-family:Times New Roman;font-size:14.00;">city :string</text>
<text text-anchor="start" x="274" y="-654.9" style="font-family:Times New Roman;font-size:14.00;">district :string</text>
<text text-anchor="start" x="274" y="-637.9" style="font-family:Times New Roman;font-size:14.00;">postcode :string</text>
<text text-anchor="start" x="274" y="-620.9" style="font-family:Times New Roman;font-size:14.00;">country :string</text>
<text text-anchor="start" x="274" y="-603.9" style="font-family:Times New Roman;font-size:14.00;">position :string</text>
<text text-anchor="start" x="274" y="-586.9" style="font-family:Times New Roman;font-size:14.00;">ic_number :string</text>
<text text-anchor="start" x="274" y="-569.9" style="font-family:Times New Roman;font-size:14.00;">passport_number :string</text>
<text text-anchor="start" x="274" y="-552.9" style="font-family:Times New Roman;font-size:14.00;">telephone :string</text>
<text text-anchor="start" x="274" y="-535.9" style="font-family:Times New Roman;font-size:14.00;">mobile :string</text>
<text text-anchor="start" x="274" y="-518.9" style="font-family:Times New Roman;font-size:14.00;">email :string</text>
<text text-anchor="start" x="274" y="-501.9" style="font-family:Times New Roman;font-size:14.00;">active :boolean</text>
<text text-anchor="start" x="274" y="-484.9" style="font-family:Times New Roman;font-size:14.00;">created_at :datetime</text>
<text text-anchor="start" x="274" y="-467.9" style="font-family:Times New Roman;font-size:14.00;">updated_at :datetime</text>
</g>
<!-- Customer&#45;&gt;Order -->
<g id="edge6" class="edge"><title>Customer&#45;&gt;Order</title>
<path style="fill:none;stroke:black;" d="M315,-452C314,-446 312,-440 310,-434"/>
<ellipse style="fill:none;stroke:black;" cx="316.03" cy="-456.119" rx="4.00001" ry="4.00001"/>
<polygon style="fill:black;stroke:black;" points="309.961,-433.806 312.413,-423.117 308.981,-428.903 308,-424 308,-424 308,-424 308.981,-428.903 303.587,-424.883 309.961,-433.806 309.961,-433.806"/>
</g>
<!-- Customer&#45;&gt;Contact -->
<g id="edge4" class="edge"><title>Customer&#45;&gt;Contact</title>
<path style="fill:none;stroke:black;" d="M401,-452C407,-423 415,-394 422,-366"/>
<ellipse style="fill:none;stroke:black;" cx="399.97" cy="-456.119" rx="4.00001" ry="4.00001"/>
<polygon style="fill:black;stroke:black;" points="422.126,-365.578 429.31,-357.293 423.563,-360.789 425,-356 425,-356 425,-356 423.563,-360.789 420.69,-354.707 422.126,-365.578 422.126,-365.578"/>
</g>
<!-- Setting -->
<g id="node11" class="node"><title>Setting</title>
<polyline style="fill:none;stroke:black;" points="1364,-485 1550,-485 "/>
<path style="fill:none;stroke:black;" d="M1550,-485C1556,-485 1562,-491 1562,-497"/>
<polyline style="fill:none;stroke:black;" points="1562,-497 1562,-744 "/>
<path style="fill:none;stroke:black;" d="M1562,-744C1562,-750 1556,-756 1550,-756"/>
<polyline style="fill:none;stroke:black;" points="1550,-756 1364,-756 "/>
<path style="fill:none;stroke:black;" d="M1364,-756C1358,-756 1352,-750 1352,-744"/>
<polyline style="fill:none;stroke:black;" points="1352,-744 1352,-497 "/>
<path style="fill:none;stroke:black;" d="M1352,-497C1352,-491 1358,-485 1364,-485"/>
<text text-anchor="middle" x="1457" y="-738.9" style="font-family:Times New Roman;font-size:14.00;">Setting</text>
<polyline style="fill:none;stroke:black;" points="1352,-731 1562,-731 "/>
<text text-anchor="start" x="1360" y="-714.4" style="font-family:Times New Roman;font-size:14.00;">company_name :string</text>
<text text-anchor="start" x="1360" y="-697.4" style="font-family:Times New Roman;font-size:14.00;">street :string</text>
<text text-anchor="start" x="1360" y="-680.4" style="font-family:Times New Roman;font-size:14.00;">city :string</text>
<text text-anchor="start" x="1360" y="-663.4" style="font-family:Times New Roman;font-size:14.00;">postcode :string</text>
<text text-anchor="start" x="1360" y="-646.4" style="font-family:Times New Roman;font-size:14.00;">country :string</text>
<text text-anchor="start" x="1360" y="-629.4" style="font-family:Times New Roman;font-size:14.00;">telephone :string</text>
<text text-anchor="start" x="1360" y="-612.4" style="font-family:Times New Roman;font-size:14.00;">mobile :string</text>
<text text-anchor="start" x="1360" y="-595.4" style="font-family:Times New Roman;font-size:14.00;">email :string</text>
<text text-anchor="start" x="1360" y="-578.4" style="font-family:Times New Roman;font-size:14.00;">website :string</text>
<text text-anchor="start" x="1360" y="-561.4" style="font-family:Times New Roman;font-size:14.00;">business_license_no :string</text>
<text text-anchor="start" x="1360" y="-544.4" style="font-family:Times New Roman;font-size:14.00;">base_currency :string</text>
<text text-anchor="start" x="1360" y="-527.4" style="font-family:Times New Roman;font-size:14.00;">base_currency_name :string</text>
<text text-anchor="start" x="1360" y="-510.4" style="font-family:Times New Roman;font-size:14.00;">created_at :datetime</text>
<text text-anchor="start" x="1360" y="-493.4" style="font-family:Times New Roman;font-size:14.00;">updated_at :datetime</text>
</g>
</g>
</svg>
